<?xml version="1.0" encoding="UTF-8"?>
<svg xmlns="http://www.w3.org/2000/svg" xmlns:xlink="http://www.w3.org/1999/xlink" width="20px" height="20px" viewBox="0 0 20 20" version="1.1">
<g id="surface1">
<path style=" stroke:none;fill-rule:nonzero;fill:rgb(100%,100%,100%);fill-opacity:1;" d="M 10.457031 1.28125 C 10.5 1.308594 10.542969 1.335938 10.585938 1.367188 C 10.621094 1.390625 10.65625 1.410156 10.691406 1.433594 C 10.820312 1.5625 10.976562 1.761719 10.976562 1.953125 C 11.003906 1.953125 11.027344 1.953125 11.054688 1.953125 C 12.875 2.023438 14.617188 3.152344 15.835938 4.4375 C 17.1875 5.914062 17.902344 7.9375 17.847656 9.933594 C 17.792969 11.097656 17.542969 12.21875 16.992188 13.257812 C 16.898438 13.441406 16.898438 13.441406 16.878906 13.644531 C 16.914062 13.75 16.914062 13.75 16.953125 13.847656 C 17.046875 14.09375 17.027344 14.402344 16.929688 14.644531 C 16.761719 14.964844 16.558594 15.140625 16.21875 15.257812 C 16.132812 15.273438 16.132812 15.273438 16.007812 15.261719 C 15.691406 15.230469 15.691406 15.230469 15.417969 15.359375 C 15.308594 15.460938 15.207031 15.570312 15.105469 15.675781 C 14.15625 16.613281 12.433594 17.441406 11.097656 17.464844 C 11.039062 17.460938 11.039062 17.460938 10.976562 17.460938 C 10.96875 17.492188 10.957031 17.527344 10.949219 17.5625 C 10.835938 17.855469 10.671875 18.023438 10.390625 18.164062 C 10.125 18.253906 9.71875 18.257812 9.464844 18.136719 C 9.339844 18.058594 9.238281 17.964844 9.140625 17.851562 C 9.113281 17.820312 9.082031 17.789062 9.054688 17.753906 C 8.980469 17.652344 8.964844 17.582031 8.945312 17.460938 C 8.921875 17.460938 8.902344 17.460938 8.878906 17.460938 C 8.257812 17.425781 7.644531 17.21875 7.070312 16.992188 C 7.042969 16.980469 7.019531 16.972656 6.992188 16.960938 C 5.402344 16.332031 4.050781 15.109375 3.203125 13.632812 C 3.179688 13.59375 3.179688 13.59375 3.15625 13.554688 C 2.714844 12.785156 2.304688 11.839844 2.257812 10.941406 C 2.238281 10.808594 2.238281 10.808594 2.113281 10.742188 C 2.0625 10.722656 2.015625 10.703125 1.964844 10.683594 C 1.738281 10.582031 1.578125 10.488281 1.445312 10.273438 C 1.421875 10.234375 1.398438 10.195312 1.371094 10.15625 C 1.273438 9.894531 1.285156 9.5625 1.363281 9.296875 C 1.460938 9.078125 1.59375 8.917969 1.796875 8.789062 C 1.871094 8.761719 1.941406 8.738281 2.015625 8.714844 C 2.175781 8.640625 2.175781 8.640625 2.273438 8.5 C 2.304688 8.382812 2.320312 8.265625 2.335938 8.144531 C 2.347656 8.054688 2.363281 7.96875 2.378906 7.878906 C 2.382812 7.835938 2.390625 7.789062 2.398438 7.746094 C 2.558594 6.875 3.003906 5.988281 3.515625 5.273438 C 3.546875 5.230469 3.574219 5.191406 3.605469 5.148438 C 3.691406 5.03125 3.777344 4.917969 3.867188 4.804688 C 3.890625 4.773438 3.914062 4.738281 3.9375 4.707031 C 4.089844 4.503906 4.089844 4.503906 4.230469 4.46875 C 4.371094 4.460938 4.460938 4.46875 4.574219 4.554688 C 4.625 4.6875 4.625 4.777344 4.609375 4.921875 C 4.550781 5.03125 4.476562 5.121094 4.398438 5.21875 C 4.351562 5.273438 4.308594 5.328125 4.265625 5.382812 C 4.234375 5.425781 4.234375 5.425781 4.203125 5.46875 C 4.050781 5.667969 3.917969 5.878906 3.789062 6.09375 C 3.773438 6.117188 3.761719 6.140625 3.746094 6.167969 C 3.34375 6.851562 3.078125 7.621094 2.929688 8.398438 C 2.921875 8.433594 2.910156 8.472656 2.902344 8.507812 C 2.875 8.609375 2.875 8.609375 2.890625 8.75 C 2.960938 8.824219 3.035156 8.875 3.121094 8.929688 C 3.308594 9.054688 3.355469 9.203125 3.398438 9.414062 C 4.585938 9.414062 5.769531 9.414062 6.992188 9.414062 C 6.992188 9.183594 6.992188 8.949219 6.992188 8.710938 C 7.003906 8.484375 7.015625 8.257812 7.035156 8.03125 C 7.039062 8 7.042969 7.972656 7.042969 7.941406 C 7.15625 6.59375 7.40625 5.25 7.890625 3.984375 C 7.902344 3.953125 7.914062 3.925781 7.925781 3.894531 C 8.070312 3.523438 8.257812 3.191406 8.476562 2.855469 C 8.550781 2.742188 8.550781 2.742188 8.59375 2.65625 C 7.53125 2.914062 6.300781 3.308594 5.507812 4.101562 C 5.429688 4.109375 5.429688 4.109375 5.335938 4.109375 C 5.304688 4.113281 5.273438 4.113281 5.242188 4.113281 C 5.15625 4.101562 5.15625 4.101562 5.089844 4.050781 C 5.011719 3.945312 5.003906 3.859375 5.007812 3.730469 C 5.078125 3.511719 5.289062 3.398438 5.46875 3.28125 C 5.496094 3.265625 5.519531 3.246094 5.546875 3.230469 C 6.488281 2.617188 7.789062 1.914062 8.945312 1.953125 C 8.960938 1.902344 8.960938 1.902344 8.976562 1.851562 C 9.085938 1.550781 9.257812 1.402344 9.53125 1.25 C 9.796875 1.160156 10.203125 1.15625 10.457031 1.28125 Z M 9.570312 2.03125 C 9.507812 2.15625 9.507812 2.285156 9.53125 2.421875 C 9.609375 2.558594 9.691406 2.644531 9.84375 2.695312 C 10.023438 2.714844 10.023438 2.714844 10.1875 2.65625 C 10.335938 2.53125 10.386719 2.46875 10.40625 2.273438 C 10.40625 2.144531 10.382812 2.078125 10.296875 1.976562 C 10.160156 1.839844 10.082031 1.820312 9.886719 1.820312 C 9.742188 1.847656 9.671875 1.925781 9.570312 2.03125 Z M 11.328125 2.617188 C 11.351562 2.65625 11.351562 2.65625 11.378906 2.695312 C 11.453125 2.8125 11.527344 2.929688 11.601562 3.046875 C 11.636719 3.097656 11.636719 3.097656 11.667969 3.152344 C 12.457031 4.425781 12.796875 6.175781 12.875 7.648438 C 12.875 7.679688 12.878906 7.710938 12.878906 7.742188 C 12.890625 7.898438 12.894531 8.054688 12.898438 8.210938 C 12.90625 8.375 12.917969 8.515625 12.96875 8.671875 C 13.074219 8.765625 13.164062 8.8125 13.292969 8.863281 C 13.460938 8.933594 13.546875 9.0625 13.632812 9.21875 C 13.660156 9.28125 13.683594 9.347656 13.710938 9.414062 C 14.859375 9.414062 16.003906 9.414062 17.1875 9.414062 C 17.1875 9.101562 17.175781 8.839844 17.125 8.539062 C 17.117188 8.496094 17.109375 8.457031 17.101562 8.414062 C 16.769531 6.578125 15.699219 4.878906 14.171875 3.808594 C 13.3125 3.226562 12.359375 2.777344 11.328125 2.617188 Z M 10.640625 3.058594 C 10.398438 3.265625 10.152344 3.300781 9.839844 3.292969 C 9.585938 3.265625 9.410156 3.171875 9.21875 3.007812 C 9.191406 3.007812 9.167969 3.007812 9.140625 3.007812 C 7.824219 4.714844 7.617188 7.347656 7.617188 9.414062 C 8.957031 9.414062 10.296875 9.414062 11.679688 9.414062 C 11.730469 9.3125 11.78125 9.207031 11.835938 9.101562 C 11.960938 8.902344 12.136719 8.816406 12.34375 8.710938 C 12.425781 6.9375 12.015625 4.375 10.820312 2.96875 C 10.730469 2.960938 10.730469 2.960938 10.640625 3.058594 Z M 2.03125 9.414062 C 1.925781 9.570312 1.925781 9.699219 1.953125 9.882812 C 2.023438 10.003906 2.078125 10.058594 2.199219 10.132812 C 2.34375 10.164062 2.4375 10.15625 2.578125 10.117188 C 2.726562 9.992188 2.804688 9.914062 2.824219 9.71875 C 2.808594 9.542969 2.769531 9.46875 2.65625 9.335938 C 2.410156 9.195312 2.25 9.246094 2.03125 9.414062 Z M 12.289062 9.484375 C 12.246094 9.652344 12.242188 9.792969 12.308594 9.953125 C 12.402344 10.0625 12.476562 10.109375 12.617188 10.15625 C 12.824219 10.152344 12.9375 10.105469 13.085938 9.960938 C 13.152344 9.824219 13.144531 9.679688 13.125 9.53125 C 13.042969 9.394531 12.964844 9.308594 12.8125 9.257812 C 12.605469 9.222656 12.414062 9.324219 12.289062 9.484375 Z M 3.398438 10 C 3.347656 10.101562 3.296875 10.207031 3.242188 10.3125 C 3.132812 10.472656 3.011719 10.558594 2.851562 10.664062 C 3.03125 11.964844 3.53125 13.203125 4.375 14.21875 C 4.394531 14.242188 4.410156 14.261719 4.429688 14.285156 C 5.3125 15.375 6.46875 16.132812 7.792969 16.578125 C 7.851562 16.597656 7.851562 16.597656 7.910156 16.617188 C 8.160156 16.699219 8.410156 16.757812 8.671875 16.796875 C 8.65625 16.769531 8.636719 16.746094 8.621094 16.71875 C 7.328125 14.714844 7.121094 12.320312 6.992188 10 C 5.804688 10 4.621094 10 3.398438 10 Z M 7.617188 10 C 7.617188 10.445312 7.625 10.878906 7.660156 11.320312 C 7.664062 11.351562 7.667969 11.378906 7.667969 11.410156 C 7.808594 13.050781 8.070312 15.089844 9.140625 16.40625 C 9.265625 16.34375 9.382812 16.277344 9.5 16.207031 C 9.742188 16.085938 10.054688 16.09375 10.308594 16.164062 C 10.484375 16.230469 10.625 16.292969 10.742188 16.445312 C 10.894531 16.394531 10.941406 16.300781 11.023438 16.171875 C 11.039062 16.148438 11.054688 16.121094 11.070312 16.097656 C 11.519531 15.367188 12.070312 14.226562 12.070312 13.359375 C 12.253906 13.324219 12.375 13.304688 12.539062 13.398438 C 12.65625 13.632812 12.542969 13.925781 12.480469 14.160156 C 12.46875 14.199219 12.460938 14.238281 12.449219 14.277344 C 12.199219 15.191406 11.855469 16.007812 11.328125 16.796875 C 12.59375 16.558594 13.820312 16.007812 14.761719 15.113281 C 14.851562 15.03125 14.945312 14.957031 15.039062 14.882812 C 15.023438 14.78125 15.003906 14.695312 14.960938 14.601562 C 14.859375 14.320312 14.878906 13.957031 15 13.6875 C 15.164062 13.414062 15.402344 13.261719 15.710938 13.179688 C 15.917969 13.152344 16.121094 13.175781 16.328125 13.203125 C 16.839844 12.199219 17.1875 11.136719 17.1875 10 C 16.039062 10 14.894531 10 13.710938 10 C 13.613281 10.195312 13.613281 10.195312 13.515625 10.390625 C 13.390625 10.515625 13.28125 10.585938 13.121094 10.648438 C 13.035156 10.6875 13.035156 10.6875 12.96875 10.742188 C 12.929688 10.863281 12.917969 10.933594 12.914062 11.058594 C 12.914062 11.085938 12.910156 11.117188 12.910156 11.148438 C 12.902344 11.246094 12.898438 11.34375 12.894531 11.441406 C 12.890625 11.539062 12.886719 11.632812 12.878906 11.730469 C 12.875 11.792969 12.871094 11.851562 12.871094 11.910156 C 12.863281 12.082031 12.839844 12.226562 12.773438 12.382812 C 12.65625 12.441406 12.550781 12.429688 12.421875 12.421875 C 12.304688 12.34375 12.304688 12.34375 12.277344 12.226562 C 12.265625 12.042969 12.28125 11.878906 12.300781 11.699219 C 12.3125 11.59375 12.324219 11.492188 12.332031 11.386719 C 12.339844 11.324219 12.347656 11.261719 12.355469 11.199219 C 12.371094 11.027344 12.382812 10.871094 12.34375 10.703125 C 12.253906 10.613281 12.167969 10.570312 12.054688 10.519531 C 11.839844 10.414062 11.765625 10.214844 11.679688 10 C 10.339844 10 9 10 7.617188 10 Z M 15.550781 13.929688 C 15.484375 14.078125 15.480469 14.214844 15.507812 14.375 C 15.589844 14.511719 15.667969 14.597656 15.820312 14.648438 C 15.976562 14.667969 16.042969 14.65625 16.179688 14.578125 C 16.332031 14.457031 16.359375 14.394531 16.386719 14.207031 C 16.359375 14.011719 16.285156 13.910156 16.132812 13.789062 C 15.890625 13.710938 15.738281 13.769531 15.550781 13.929688 Z M 9.570312 16.914062 C 9.507812 17.039062 9.507812 17.167969 9.53125 17.304688 C 9.597656 17.421875 9.679688 17.515625 9.804688 17.578125 C 10.003906 17.601562 10.003906 17.601562 10.1875 17.539062 C 10.335938 17.414062 10.386719 17.347656 10.40625 17.15625 C 10.40625 17.027344 10.382812 16.960938 10.296875 16.859375 C 10.160156 16.722656 10.082031 16.703125 9.886719 16.703125 C 9.742188 16.730469 9.671875 16.808594 9.570312 16.914062 Z M 9.570312 16.914062 "/>
<path style=" stroke:none;fill-rule:nonzero;fill:rgb(100%,100%,100%);fill-opacity:1;" d="M 9.984375 -0.0117188 C 10.023438 -0.0117188 10.066406 -0.0117188 10.105469 -0.0117188 C 10.675781 -0.0117188 11.234375 0 11.796875 0.117188 C 11.855469 0.128906 11.855469 0.128906 11.917969 0.140625 C 13.726562 0.503906 15.421875 1.332031 16.769531 2.601562 C 16.871094 2.699219 16.871094 2.699219 16.992188 2.773438 C 17.066406 2.753906 17.144531 2.734375 17.21875 2.714844 C 17.519531 2.648438 17.777344 2.710938 18.046875 2.851562 C 18.296875 3.03125 18.445312 3.257812 18.515625 3.554688 C 18.5625 3.90625 18.472656 4.183594 18.296875 4.484375 C 18.027344 4.738281 17.742188 4.859375 17.375 4.855469 C 17.074219 4.824219 16.820312 4.714844 16.617188 4.488281 C 16.414062 4.214844 16.335938 3.933594 16.367188 3.59375 C 16.386719 3.527344 16.40625 3.460938 16.421875 3.394531 C 16.453125 3.261719 16.453125 3.261719 16.410156 3.132812 C 16.335938 3.054688 16.257812 2.992188 16.171875 2.929688 C 16.132812 2.898438 16.09375 2.867188 16.054688 2.832031 C 15.015625 1.984375 13.835938 1.328125 12.539062 0.976562 C 12.492188 0.964844 12.492188 0.964844 12.441406 0.949219 C 10.042969 0.3125 7.445312 0.640625 5.292969 1.882812 C 4.902344 2.117188 4.535156 2.371094 4.179688 2.65625 C 4.15625 2.675781 4.132812 2.691406 4.109375 2.710938 C 3.511719 3.195312 2.953125 3.746094 2.5 4.375 C 2.484375 4.398438 2.464844 4.421875 2.449219 4.445312 C 1.289062 6.039062 0.664062 7.917969 0.644531 9.882812 C 0.636719 10.285156 0.636719 10.285156 0.507812 10.46875 C 0.386719 10.527344 0.289062 10.519531 0.15625 10.507812 C 0.0390625 10.421875 0.00390625 10.375 -0.0195312 10.234375 C -0.0195312 10.1875 -0.0195312 10.140625 -0.0195312 10.09375 C -0.0195312 10.042969 -0.0195312 9.992188 -0.0195312 9.9375 C -0.0195312 9.882812 -0.0195312 9.828125 -0.015625 9.773438 C -0.015625 9.746094 -0.015625 9.714844 -0.015625 9.6875 C 0.0078125 7.28125 1.007812 4.839844 2.699219 3.121094 C 2.777344 3.042969 2.859375 2.960938 2.9375 2.878906 C 3.265625 2.539062 3.601562 2.230469 3.984375 1.953125 C 4.003906 1.9375 4.027344 1.921875 4.050781 1.90625 C 4.871094 1.316406 5.757812 0.832031 6.71875 0.507812 C 6.765625 0.492188 6.765625 0.492188 6.816406 0.476562 C 7.195312 0.347656 7.582031 0.25 7.976562 0.164062 C 8.011719 0.160156 8.046875 0.152344 8.085938 0.140625 C 8.71875 0.015625 9.339844 -0.015625 9.984375 -0.0117188 Z M 17.035156 3.566406 C 16.976562 3.710938 16.988281 3.796875 17.03125 3.945312 C 17.105469 4.070312 17.164062 4.15625 17.300781 4.207031 C 17.441406 4.230469 17.519531 4.226562 17.648438 4.171875 C 17.675781 4.148438 17.707031 4.125 17.734375 4.101562 C 17.757812 4.085938 17.78125 4.070312 17.804688 4.054688 C 17.882812 3.9375 17.894531 3.808594 17.890625 3.671875 C 17.820312 3.492188 17.707031 3.410156 17.539062 3.320312 C 17.320312 3.277344 17.167969 3.40625 17.035156 3.566406 Z M 17.035156 3.566406 "/>
<path style=" stroke:none;fill-rule:nonzero;fill:rgb(100%,100%,100%);fill-opacity:1;" d="M 19.84375 9.492188 C 19.960938 9.578125 19.996094 9.625 20.019531 9.765625 C 20.019531 9.8125 20.019531 9.859375 20.019531 9.90625 C 20.019531 9.957031 20.019531 10.007812 20.019531 10.0625 C 20.019531 10.117188 20.019531 10.171875 20.015625 10.226562 C 20.015625 10.253906 20.015625 10.285156 20.015625 10.3125 C 19.996094 12.308594 19.304688 14.289062 18.125 15.898438 C 18.109375 15.921875 18.09375 15.941406 18.074219 15.964844 C 17.828125 16.304688 17.554688 16.613281 17.265625 16.914062 C 17.242188 16.941406 17.214844 16.96875 17.1875 16.992188 C 16.832031 17.363281 16.46875 17.703125 16.054688 18.007812 C 16.03125 18.023438 16.007812 18.042969 15.984375 18.058594 C 14.777344 18.953125 13.417969 19.550781 11.945312 19.851562 C 11.914062 19.859375 11.886719 19.867188 11.855469 19.871094 C 11.25 19.988281 10.648438 20.015625 10.035156 20.011719 C 9.996094 20.011719 9.957031 20.011719 9.917969 20.011719 C 9.351562 20.011719 8.800781 19.992188 8.242188 19.882812 C 8.207031 19.875 8.171875 19.871094 8.136719 19.863281 C 6.4375 19.554688 4.683594 18.777344 3.421875 17.570312 C 3.390625 17.542969 3.390625 17.542969 3.359375 17.511719 C 3.300781 17.453125 3.246094 17.398438 3.1875 17.339844 C 3.09375 17.253906 3.09375 17.253906 2.992188 17.273438 C 2.957031 17.285156 2.925781 17.292969 2.890625 17.304688 C 2.535156 17.335938 2.246094 17.324219 1.953125 17.109375 C 1.71875 16.902344 1.585938 16.683594 1.550781 16.371094 C 1.535156 16.015625 1.625 15.773438 1.84375 15.496094 C 2.027344 15.300781 2.207031 15.207031 2.476562 15.183594 C 2.851562 15.171875 3.132812 15.21875 3.414062 15.472656 C 3.605469 15.695312 3.722656 15.984375 3.71875 16.28125 C 3.699219 16.46875 3.644531 16.652344 3.59375 16.835938 C 4.175781 17.40625 4.832031 17.859375 5.546875 18.242188 C 5.585938 18.265625 5.585938 18.265625 5.628906 18.285156 C 7.789062 19.441406 10.359375 19.675781 12.703125 18.980469 C 14.152344 18.527344 15.433594 17.777344 16.523438 16.71875 C 16.546875 16.699219 16.566406 16.675781 16.589844 16.652344 C 16.925781 16.332031 17.226562 16 17.5 15.625 C 17.515625 15.601562 17.535156 15.578125 17.550781 15.554688 C 18.707031 13.964844 19.335938 12.082031 19.355469 10.117188 C 19.363281 9.714844 19.363281 9.714844 19.492188 9.53125 C 19.613281 9.472656 19.710938 9.480469 19.84375 9.492188 Z M 2.265625 15.976562 C 2.175781 16.105469 2.167969 16.214844 2.1875 16.367188 C 2.265625 16.511719 2.324219 16.589844 2.460938 16.679688 C 2.625 16.691406 2.730469 16.695312 2.882812 16.636719 C 2.992188 16.539062 3.039062 16.464844 3.085938 16.328125 C 3.085938 16.152344 3.066406 16.078125 2.953125 15.941406 C 2.8125 15.824219 2.726562 15.808594 2.539062 15.808594 C 2.414062 15.828125 2.351562 15.886719 2.265625 15.976562 Z M 2.265625 15.976562 "/>
</g>
</svg>
